<svg width="194" height="68" viewBox="0 0 194 68" fill="none" xmlns="http://www.w3.org/2000/svg">
<path d="M174.64 43.34C180.933 43.2267 187.213 43.1133 193.48 43C154.913 51.2 117.023 59.31 79.81 67.33C74.9633 67.3433 70.1167 67.3533 65.27 67.36C72.63 64.0267 79.8867 60.7067 87.04 57.4C72.1467 60.7467 57.3567 64.08 42.67 67.4C37.7833 67.4067 32.8933 67.4167 28 67.43C42.38 59.9567 56.0933 52.5667 69.14 45.26C75.3533 45.1533 81.58 45.0433 87.82 44.93C77.08 50.5167 66.02 56.1433 54.64 61.81C65.5333 59.2967 76.5 56.7733 87.54 54.24C93.9267 51.0267 100.227 47.8233 106.44 44.63C111.947 44.53 117.457 44.43 122.97 44.33C117.823 46.6433 112.633 48.96 107.4 51.28C117.953 48.8667 128.553 46.45 139.2 44.03C144.707 43.93 150.217 43.83 155.73 43.73C139.89 47.1633 124.157 50.5833 108.53 53.99C102.783 56.5167 96.9733 59.05 91.1 61.59C118.62 55.55 146.467 49.4667 174.64 43.34Z" fill="#2A2F36"/>
<path d="M91.008 0.927994H107.264L79.232 68H64.896L53.632 39.2L42.624 68H28.16L0.256 0.927994H16.384L36.352 51.616L44.16 29.728L32.512 1.056H46.72L53.632 21.536L60.672 1.056H74.88L63.232 29.728L71.168 51.616L91.008 0.927994Z" fill="#88BCFF"/>
</svg>
