<svg width="444" height="152" viewBox="0 0 444 152" fill="none" xmlns="http://www.w3.org/2000/svg">
<g clip-path="url(#clip0_4_31)">
<path d="M328.64 42.34C334.933 42.2267 341.213 42.1133 347.48 42C308.913 50.2 271.023 58.31 233.81 66.33C228.963 66.3433 224.117 66.3533 219.27 66.36C226.63 63.0267 233.887 59.7067 241.04 56.4C226.147 59.7467 211.357 63.08 196.67 66.4C191.783 66.4067 186.893 66.4167 182 66.43C196.38 58.9567 210.093 51.5667 223.14 44.26C229.353 44.1533 235.58 44.0433 241.82 43.93C231.08 49.5167 220.02 55.1433 208.64 60.81C219.533 58.2967 230.5 55.7733 241.54 53.24C247.927 50.0267 254.227 46.8233 260.44 43.63C265.947 43.53 271.457 43.43 276.97 43.33C271.823 45.6433 266.633 47.96 261.4 50.28C271.953 47.8667 282.553 45.45 293.2 43.03C298.707 42.93 304.217 42.83 309.73 42.73C293.89 46.1633 278.157 49.5833 262.53 52.99C256.783 55.5167 250.973 58.05 245.1 60.59C272.62 54.55 300.467 48.4667 328.64 42.34Z" fill="#2A2F36"/>
<path d="M245.008 -0.0720062H261.264L233.232 67H218.896L207.632 38.2L196.624 67H182.16L154.256 -0.0720062H170.384L190.352 50.616L198.16 28.728L186.512 0.0559998H200.72L207.632 20.536L214.672 0.0559998H228.88L217.232 28.728L225.168 50.616L245.008 -0.0720062Z" fill="#88BCFF"/>
<rect y="85" width="182" height="67" rx="6" fill="#2A2F36"/>
<path d="M18.984 139V99.24H32.48C36.6987 99.24 40.208 100.136 43.008 101.928C45.8453 103.683 47.9733 106.072 49.392 109.096C50.8107 112.083 51.52 115.405 51.52 119.064C51.52 123.096 50.736 126.605 49.168 129.592C47.6373 132.579 45.4347 134.893 42.56 136.536C39.7227 138.179 36.3627 139 32.48 139H18.984ZM47.6 119.064C47.6 115.891 47.0027 113.072 45.808 110.608C44.6507 108.144 42.952 106.221 40.712 104.84C38.472 103.421 35.728 102.712 32.48 102.712H22.904V135.528H32.48C35.7653 135.528 38.528 134.8 40.768 133.344C43.008 131.888 44.7067 129.928 45.864 127.464C47.0213 124.963 47.6 122.163 47.6 119.064ZM75.1993 139.28C72.0633 139.28 69.4126 138.72 67.2473 137.6C65.0819 136.48 63.3646 134.987 62.0953 133.12C60.8259 131.216 59.8926 129.069 59.2953 126.68C58.7353 124.291 58.4553 121.827 58.4553 119.288V99.24H62.3193V119.288C62.3193 121.341 62.5246 123.357 62.9353 125.336C63.3833 127.315 64.0926 129.088 65.0633 130.656C66.0339 132.224 67.3406 133.475 68.9833 134.408C70.6259 135.304 72.6793 135.752 75.1433 135.752C77.6819 135.752 79.7726 135.285 81.4153 134.352C83.0953 133.381 84.4019 132.112 85.3353 130.544C86.3059 128.976 86.9966 127.221 87.4073 125.28C87.8179 123.301 88.0233 121.304 88.0233 119.288V99.24H91.9433V119.288C91.9433 121.939 91.6446 124.477 91.0473 126.904C90.4499 129.331 89.4793 131.459 88.1353 133.288C86.8286 135.117 85.1113 136.573 82.9833 137.656C80.8553 138.739 78.2606 139.28 75.1993 139.28ZM131.193 128.752C131.193 130.731 130.689 132.504 129.681 134.072C128.673 135.603 127.31 136.816 125.593 137.712C123.913 138.571 122.065 139 120.049 139H101.289V99.24H120.441C122.307 99.24 123.913 99.744 125.257 100.752C126.638 101.723 127.683 102.992 128.393 104.56C129.139 106.091 129.513 107.696 129.513 109.376C129.513 111.355 129.009 113.184 128.001 114.864C126.993 116.544 125.593 117.795 123.801 118.616C126.078 119.288 127.87 120.539 129.177 122.368C130.521 124.197 131.193 126.325 131.193 128.752ZM127.273 128.08C127.273 126.736 126.974 125.504 126.377 124.384C125.779 123.227 124.958 122.293 123.913 121.584C122.905 120.875 121.747 120.52 120.441 120.52H105.209V135.584H120.049C121.393 135.584 122.606 135.229 123.689 134.52C124.771 133.811 125.63 132.896 126.265 131.776C126.937 130.619 127.273 129.387 127.273 128.08ZM105.209 102.656V117.328H118.873C120.179 117.328 121.337 116.992 122.345 116.32C123.353 115.611 124.155 114.696 124.753 113.576C125.35 112.456 125.649 111.261 125.649 109.992C125.649 108.648 125.369 107.435 124.809 106.352C124.249 105.232 123.483 104.336 122.513 103.664C121.542 102.992 120.441 102.656 119.209 102.656H105.209ZM161.826 106.688C161.266 106.053 160.612 105.493 159.866 105.008C159.119 104.485 158.279 104.037 157.346 103.664C156.412 103.291 155.404 102.992 154.322 102.768C153.276 102.544 152.156 102.432 150.962 102.432C147.49 102.432 144.932 103.104 143.29 104.448C141.684 105.755 140.882 107.547 140.882 109.824C140.882 111.392 141.255 112.624 142.002 113.52C142.786 114.416 143.999 115.144 145.642 115.704C147.284 116.264 149.375 116.843 151.914 117.44C154.751 118.037 157.196 118.747 159.25 119.568C161.303 120.389 162.89 121.509 164.01 122.928C165.13 124.309 165.69 126.195 165.69 128.584C165.69 130.413 165.335 132 164.626 133.344C163.916 134.688 162.927 135.808 161.658 136.704C160.388 137.6 158.876 138.272 157.122 138.72C155.367 139.131 153.444 139.336 151.354 139.336C149.3 139.336 147.322 139.131 145.418 138.72C143.551 138.272 141.778 137.637 140.098 136.816C138.418 135.957 136.85 134.875 135.394 133.568L137.354 130.376C138.063 131.123 138.903 131.832 139.874 132.504C140.882 133.139 141.983 133.717 143.178 134.24C144.41 134.763 145.716 135.173 147.098 135.472C148.516 135.733 149.972 135.864 151.466 135.864C154.639 135.864 157.103 135.285 158.858 134.128C160.65 132.971 161.546 131.253 161.546 128.976C161.546 127.333 161.098 126.027 160.202 125.056C159.306 124.048 157.962 123.227 156.17 122.592C154.378 121.957 152.175 121.341 149.562 120.744C146.799 120.109 144.466 119.4 142.562 118.616C140.658 117.832 139.22 116.805 138.25 115.536C137.316 114.229 136.85 112.512 136.85 110.384C136.85 107.92 137.447 105.848 138.642 104.168C139.874 102.451 141.554 101.163 143.682 100.304C145.81 99.408 148.255 98.96 151.018 98.96C152.772 98.96 154.396 99.1467 155.89 99.52C157.42 99.856 158.82 100.36 160.09 101.032C161.396 101.704 162.61 102.544 163.73 103.552L161.826 106.688Z" fill="#F0F0F0"/>
<path d="M201.984 138V98.24H205.904V138H201.984ZM251.099 138V105.632L236.707 130.776H234.243L219.795 105.632V138H215.875V98.24H219.907L235.419 125.456L251.043 98.24H255.019V138H251.099ZM277.304 98.24H280.608L297.128 138H292.984L287.832 125.568H269.968L264.872 138H260.672L277.304 98.24ZM286.936 122.488L278.928 102.832L270.808 122.488H286.936ZM317.311 138.28C314.661 138.28 312.197 137.72 309.919 136.6C307.642 135.443 305.663 133.893 303.983 131.952C302.303 130.011 300.997 127.845 300.063 125.456C299.167 123.067 298.719 120.603 298.719 118.064C298.719 115.376 299.167 112.837 300.063 110.448C300.997 108.021 302.285 105.875 303.927 104.008C305.57 102.141 307.511 100.667 309.751 99.584C311.991 98.5013 314.437 97.96 317.087 97.96C321.007 97.96 324.199 98.7627 326.663 100.368C329.127 101.973 330.994 104.064 332.263 106.64L329.239 108.656C327.97 106.192 326.271 104.381 324.143 103.224C322.015 102.067 319.645 101.488 317.031 101.488C314.829 101.488 312.831 101.955 311.039 102.888C309.285 103.821 307.773 105.072 306.503 106.64C305.234 108.208 304.263 109.981 303.591 111.96C302.957 113.939 302.639 115.992 302.639 118.12C302.639 120.36 303.013 122.488 303.759 124.504C304.506 126.483 305.57 128.256 306.951 129.824C308.333 131.355 309.919 132.568 311.711 133.464C313.541 134.323 315.501 134.752 317.591 134.752C320.018 134.752 322.314 134.155 324.479 132.96C326.645 131.728 328.717 129.843 330.695 127.304V131.448C326.925 136.003 322.463 138.28 317.311 138.28ZM330.079 121.48H321.231V118.456H333.383V138H330.079V121.48ZM368.149 134.528V138H341.437V98.24H367.645V101.712H345.357V116.048H364.789V119.352H345.357V134.528H368.149ZM375.562 138V98.24H392.362C394.079 98.24 395.647 98.5947 397.066 99.304C398.485 100.013 399.717 100.984 400.762 102.216C401.845 103.411 402.666 104.755 403.226 106.248C403.823 107.704 404.122 109.197 404.122 110.728C404.122 112.632 403.749 114.424 403.002 116.104C402.293 117.784 401.266 119.203 399.922 120.36C398.615 121.517 397.066 122.283 395.274 122.656L405.018 138H400.594L391.242 123.328H379.482V138H375.562ZM379.482 119.856H392.474C394.042 119.856 395.405 119.427 396.562 118.568C397.719 117.709 398.615 116.589 399.25 115.208C399.885 113.789 400.202 112.296 400.202 110.728C400.202 109.123 399.829 107.648 399.082 106.304C398.373 104.923 397.402 103.821 396.17 103C394.975 102.141 393.631 101.712 392.138 101.712H379.482V119.856ZM410.731 98.24L423.723 119.632L436.827 98.24H441.083L425.683 123.216V138H421.763V123.104L406.419 98.24H410.731Z" fill="#2A2F36"/>
</g>
<defs>
<clipPath id="clip0_4_31">
<rect width="444" height="152" fill="white"/>
</clipPath>
</defs>
</svg>
